ffmpeg started on 2025-06-23 at 21:03:45
Report written to "D:\Convert\FFMetrics\reports\ssim_report-6.txt"
Log level: 32
Command line:
ffmpeg -hide_banner -nostdin -i "G:\\\xc0\xed\xe8\xec\xe5\\[\xd2\xee\xef-4]\\\xcc\xee\xe6\xe5\xf2, \xff \xe2\xf1\xf2\xf0\xe5\xf7\xf3 \xf2\xe5\xe1\xff \xe2 \xef\xee\xe4\xe7\xe5\xec\xe5\xeb\xfc\xe5\\\xd2\xc2-2\\Danmachi_Sword_Oratoria_[04]_[AniLibria_TV]_[HDTV-Rip]_HEVC.mkv" -i "G:\\\xc0\xed\xe8\xec\xe5\\[\xd2\xee\xef-4]\\\xcc\xee\xe6\xe5\xf2, \xff \xe2\xf1\xf2\xf0\xe5\xf7\xf3 \xf2\xe5\xe1\xff \xe2 \xef\xee\xe4\xe7\xe5\xec\xe5\xeb\xfc\xe5\\\xd2\xc2-2\\Danmachi_Sword_Oratoria_[04]_[AniLibria_TV]_[HDTV-Rip].mkv" -lavfi "[0:v]settb=AVTB,setpts=PTS-STARTPTS,format=pix_fmts=yuv420p10,fps=24000/1001,scale=1280:720:flags=bicubic[main];[1:v]settb=AVTB,setpts=PTS-STARTPTS,format=pix_fmts=yuv420p,fps=24000/1001,scale=1280:720:flags=bicubic[ref];[main][ref]ssim=eof_action=endall:stats_file='D\\:/Convert/FFMetrics/logs/ssim_logfile-6.txt'" -f null -
Input #0, matroska,webm, from 'G:\Аниме\[Топ-4]\Может, я встречу тебя в подземелье\ТВ-2\Danmachi_Sword_Oratoria_[04]_[AniLibria_TV]_[HDTV-Rip]_HEVC.mkv':
  Metadata:
    ENCODER         : Lavf61.7.100
  Duration: 00:23:59.73, start: -0.021000, bitrate: 644 kb/s
  Stream #0:0(jpn): Video: hevc (Main 10), yuv420p10le(tv, bt709, progressive), 1280x720 [SAR 1:1 DAR 16:9], 23.98 fps, 23.98 tbr, 1k tbn (default) (forced)
      Metadata:
        title           : Original
        ENCODER         : Lavc61.19.100 libx265
        BPS             : 446265
        DURATION        : 00:23:59.729708333
        NUMBER_OF_FRAMES: 34519
        NUMBER_OF_BYTES : 80312745
        _STATISTICS_WRITING_APP: mkvpropedit v66.0.0 ('Josie') 64-bit
        _STATISTICS_WRITING_DATE_UTC: 2025-06-23 10:24:37
        _STATISTICS_TAGS: BPS DURATION NUMBER_OF_FRAMES NUMBER_OF_BYTES
  Stream #0:1(rus): Audio: aac (LC), 48000 Hz, stereo, fltp (default) (forced)
      Metadata:
        title           : Leeannushka & Sharon
        ENCODER         : Lavc61.19.100 aac
        BPS             : 193816
        DURATION        : 00:23:59.701000000
        NUMBER_OF_FRAMES: 67487
        NUMBER_OF_BYTES : 34879783
        _STATISTICS_WRITING_APP: mkvpropedit v66.0.0 ('Josie') 64-bit
        _STATISTICS_WRITING_DATE_UTC: 2025-06-23 10:24:37
        _STATISTICS_TAGS: BPS DURATION NUMBER_OF_FRAMES NUMBER_OF_BYTES
  Stream #0:2(rus): Subtitle: ass (ssa) (default) (forced)
      Metadata:
        title           : Надписи
        BPS             : 66
        DURATION        : 00:22:58.960000000
        NUMBER_OF_FRAMES: 37
        NUMBER_OF_BYTES : 11510
        _STATISTICS_WRITING_APP: mkvpropedit v66.0.0 ('Josie') 64-bit
        _STATISTICS_WRITING_DATE_UTC: 2025-06-23 10:24:37
        _STATISTICS_TAGS: BPS DURATION NUMBER_OF_FRAMES NUMBER_OF_BYTES
  Stream #0:3(rus): Subtitle: ass (ssa)
      Metadata:
        title           : Субтитры
        BPS             : 188
        DURATION        : 00:23:55.080000000
        NUMBER_OF_FRAMES: 321
        NUMBER_OF_BYTES : 33739
        _STATISTICS_WRITING_APP: mkvpropedit v66.0.0 ('Josie') 64-bit
        _STATISTICS_WRITING_DATE_UTC: 2025-06-23 10:24:37
        _STATISTICS_TAGS: BPS DURATION NUMBER_OF_FRAMES NUMBER_OF_BYTES
Input #1, matroska,webm, from 'G:\Аниме\[Топ-4]\Может, я встречу тебя в подземелье\ТВ-2\Danmachi_Sword_Oratoria_[04]_[AniLibria_TV]_[HDTV-Rip].mkv':
  Metadata:
    encoder         : libebml v1.4.2 + libmatroska v1.6.4
    creation_time   : 2025-01-14T16:51:22.000000Z
  Duration: 00:23:59.73, start: 0.000000, bitrate: 1953 kb/s
  Stream #1:0(jpn): Video: h264 (High), yuv420p(tv, bt709, progressive), 1280x720 [SAR 1:1 DAR 16:9], 23.98 fps, 23.98 tbr, 1k tbn (default) (forced)
      Metadata:
        title           : Original
        BPS             : 1755962
        DURATION        : 00:23:59.730000000
        NUMBER_OF_FRAMES: 34519
        NUMBER_OF_BYTES : 316014058
        _STATISTICS_WRITING_APP: mkvmerge v66.0.0 ('Josie') 64-bit
        _STATISTICS_WRITING_DATE_UTC: 2025-01-14 16:51:22
        _STATISTICS_TAGS: BPS DURATION NUMBER_OF_FRAMES NUMBER_OF_BYTES
  Stream #1:1(rus): Audio: aac (LC), 48000 Hz, stereo, fltp (default) (forced)
      Metadata:
        title           : Leeannushka & Sharon
        BPS             : 192093
        DURATION        : 00:23:59.701000000
        NUMBER_OF_FRAMES: 67486
        NUMBER_OF_BYTES : 34569607
        _STATISTICS_WRITING_APP: mkvmerge v66.0.0 ('Josie') 64-bit
        _STATISTICS_WRITING_DATE_UTC: 2025-01-14 16:51:22
        _STATISTICS_TAGS: BPS DURATION NUMBER_OF_FRAMES NUMBER_OF_BYTES
  Stream #1:2(rus): Subtitle: ass (ssa) (default) (forced)
      Metadata:
        title           : Надписи
        BPS             : 66
        DURATION        : 00:22:58.960000000
        NUMBER_OF_FRAMES: 37
        NUMBER_OF_BYTES : 11510
        _STATISTICS_WRITING_APP: mkvmerge v66.0.0 ('Josie') 64-bit
        _STATISTICS_WRITING_DATE_UTC: 2025-01-14 16:51:22
        _STATISTICS_TAGS: BPS DURATION NUMBER_OF_FRAMES NUMBER_OF_BYTES
  Stream #1:3(rus): Subtitle: ass (ssa)
      Metadata:
        title           : Субтитры
        BPS             : 188
        DURATION        : 00:23:55.080000000
        NUMBER_OF_FRAMES: 321
        NUMBER_OF_BYTES : 33739
        _STATISTICS_WRITING_APP: mkvmerge v66.0.0 ('Josie') 64-bit
        _STATISTICS_WRITING_DATE_UTC: 2025-01-14 16:51:22
        _STATISTICS_TAGS: BPS DURATION NUMBER_OF_FRAMES NUMBER_OF_BYTES
  Stream #1:4: Attachment: ttf
      Metadata:
        filename        : 9808.ttf
        mimetype        : application/x-truetype-font
  Stream #1:5: Attachment: ttf
      Metadata:
        filename        : 10119.ttf
        mimetype        : application/x-truetype-font
  Stream #1:6: Attachment: ttf
      Metadata:
        filename        : 10323.ttf
        mimetype        : application/x-truetype-font
Stream mapping:
  Stream #0:0 (hevc) -> settb:default
  Stream #1:0 (h264) -> settb:default
  ssim:default -> Stream #0:0 (wrapped_avframe)
  Stream #0:1 -> #0:1 (aac (native) -> pcm_s16le (native))
Output #0, null, to 'pipe:':
  Metadata:
    encoder         : Lavf61.7.100
  Stream #0:0: Video: wrapped_avframe, yuv420p10le(tv, bt709, progressive), 1280x720 [SAR 1:1 DAR 16:9], q=2-31, 200 kb/s, 23.98 fps, 23.98 tbn
      Metadata:
        encoder         : Lavc61.19.100 wrapped_avframe
  Stream #0:1(rus): Audio: pcm_s16le, 48000 Hz, stereo, s16, 1536 kb/s (default) (forced)
      Metadata:
        title           : Leeannushka & Sharon
        _STATISTICS_TAGS: BPS DURATION NUMBER_OF_FRAMES NUMBER_OF_BYTES
        BPS             : 193816
        DURATION        : 00:23:59.701000000
        NUMBER_OF_FRAMES: 67487
        NUMBER_OF_BYTES : 34879783
        _STATISTICS_WRITING_APP: mkvpropedit v66.0.0 ('Josie') 64-bit
        _STATISTICS_WRITING_DATE_UTC: 2025-06-23 10:24:37
        encoder         : Lavc61.19.100 pcm_s16le
frame=  585 fps=0.0 q=-0.0 size=N/A time=00:00:24.39 bitrate=N/A speed=48.1x    frame= 1213 fps=1171 q=-0.0 size=N/A time=00:00:50.59 bitrate=N/A speed=48.9x    frame= 1596 fps=1033 q=-0.0 size=N/A time=00:01:06.56 bitrate=N/A speed=43.1x    frame= 1994 fps=970 q=-0.0 size=N/A time=00:01:23.16 bitrate=N/A speed=40.4x    frame= 2404 fps=932 q=-0.0 size=N/A time=00:01:40.26 bitrate=N/A speed=38.9x    frame= 2816 fps=911 q=-0.0 size=N/A time=00:01:57.45 bitrate=N/A speed=  38x    frame= 3129 fps=869 q=-0.0 size=N/A time=00:02:10.50 bitrate=N/A speed=36.2x    frame= 3587 fps=869 q=-0.0 size=N/A time=00:02:29.60 bitrate=N/A speed=36.2x    frame= 4006 fps=864 q=-0.0 size=N/A time=00:02:47.08 bitrate=N/A speed=  36x    frame= 4525 fps=879 q=-0.0 size=N/A time=00:03:08.73 bitrate=N/A speed=36.6x    frame= 5124 fps=902 q=-0.0 size=N/A time=00:03:33.71 bitrate=N/A speed=37.6x    frame= 5752 fps=930 q=-0.0 size=N/A time=00:03:59.90 bitrate=N/A speed=38.8x    frame= 6335 fps=946 q=-0.0 size=N/A time=00:04:24.22 bitrate=N/A speed=39.5x    frame= 6908 fps=956 q=-0.0 size=N/A time=00:04:48.12 bitrate=N/A speed=39.9x    frame= 7554 fps=977 q=-0.0 size=N/A time=00:05:15.06 bitrate=N/A speed=40.7x    frame= 8145 fps=988 q=-0.0 size=N/A time=00:05:39.71 bitrate=N/A speed=41.2x    frame= 8746 fps=997 q=-0.0 size=N/A time=00:06:04.78 bitrate=N/A speed=41.6x    frame= 9382 fps=1012 q=-0.0 size=N/A time=00:06:31.30 bitrate=N/A speed=42.2x    frame= 9988 fps=1019 q=-0.0 size=N/A time=00:06:56.58 bitrate=N/A speed=42.5x    frame=10414 fps=1010 q=-0.0 size=N/A time=00:07:14.35 bitrate=N/A speed=42.1x    frame=10946 fps=1011 q=-0.0 size=N/A time=00:07:36.53 bitrate=N/A speed=42.2x    frame=11496 fps=1013 q=-0.0 size=N/A time=00:07:59.47 bitrate=N/A speed=42.2x    frame=12017 fps=1013 q=-0.0 size=N/A time=00:08:21.20 bitrate=N/A speed=42.3x    frame=12674 fps=1024 q=-0.0 size=N/A time=00:08:48.61 bitrate=N/A speed=42.7x    frame=13317 fps=1033 q=-0.0 size=N/A time=00:09:15.42 bitrate=N/A speed=43.1x    frame=13902 fps=1037 q=-0.0 size=N/A time=00:09:39.82 bitrate=N/A speed=43.2x    frame=14524 fps=1044 q=-0.0 size=N/A time=00:10:05.77 bitrate=N/A speed=43.5x    frame=15148 fps=1049 q=-0.0 size=N/A time=00:10:31.79 bitrate=N/A speed=43.7x    frame=15736 fps=1052 q=-0.0 size=N/A time=00:10:56.32 bitrate=N/A speed=43.9x    frame=16379 fps=1059 q=-0.0 size=N/A time=00:11:23.14 bitrate=N/A speed=44.2x    frame=16942 fps=1060 q=-0.0 size=N/A time=00:11:46.62 bitrate=N/A speed=44.2x    frame=17364 fps=1053 q=-0.0 size=N/A time=00:12:04.22 bitrate=N/A speed=43.9x    frame=17883 fps=1051 q=-0.0 size=N/A time=00:12:25.87 bitrate=N/A speed=43.9x    frame=18326 fps=1045 q=-0.0 size=N/A time=00:12:44.34 bitrate=N/A speed=43.6x    frame=18936 fps=1049 q=-0.0 size=N/A time=00:13:09.78 bitrate=N/A speed=43.8x    frame=19495 fps=1051 q=-0.0 size=N/A time=00:13:33.10 bitrate=N/A speed=43.8x    frame=19966 fps=1046 q=-0.0 size=N/A time=00:13:52.74 bitrate=N/A speed=43.6x    frame=20359 fps=1039 q=-0.0 size=N/A time=00:14:09.13 bitrate=N/A speed=43.3x    frame=20980 fps=1043 q=-0.0 size=N/A time=00:14:35.04 bitrate=N/A speed=43.5x    frame=21486 fps=1041 q=-0.0 size=N/A time=00:14:56.14 bitrate=N/A speed=43.4x    frame=21972 fps=1039 q=-0.0 size=N/A time=00:15:16.41 bitrate=N/A speed=43.3x    frame=22452 fps=1036 q=-0.0 size=N/A time=00:15:36.43 bitrate=N/A speed=43.2x    frame=23034 fps=1038 q=-0.0 size=N/A time=00:16:00.70 bitrate=N/A speed=43.3x    frame=23578 fps=1039 q=-0.0 size=N/A time=00:16:23.39 bitrate=N/A speed=43.3x    frame=24213 fps=1043 q=-0.0 size=N/A time=00:16:49.88 bitrate=N/A speed=43.5x    frame=24671 fps=1039 q=-0.0 size=N/A time=00:17:08.98 bitrate=N/A speed=43.3x    frame=25331 fps=1045 q=-0.0 size=N/A time=00:17:36.51 bitrate=N/A speed=43.6x    frame=25935 fps=1047 q=-0.0 size=N/A time=00:18:01.70 bitrate=N/A speed=43.7x    frame=26596 fps=1052 q=-0.0 size=N/A time=00:18:29.27 bitrate=N/A speed=43.9x    frame=27073 fps=1049 q=-0.0 size=N/A time=00:18:49.16 bitrate=N/A speed=43.8x    frame=27664 fps=1052 q=-0.0 size=N/A time=00:19:13.81 bitrate=N/A speed=43.9x    frame=28336 fps=1056 q=-0.0 size=N/A time=00:19:41.84 bitrate=N/A speed=  44x    frame=28991 fps=1060 q=-0.0 size=N/A time=00:20:09.16 bitrate=N/A speed=44.2x    frame=29651 fps=1065 q=-0.0 size=N/A time=00:20:36.69 bitrate=N/A speed=44.4x    frame=30291 fps=1067 q=-0.0 size=N/A time=00:21:03.38 bitrate=N/A speed=44.5x    frame=30861 fps=1068 q=-0.0 size=N/A time=00:21:27.16 bitrate=N/A speed=44.6x    frame=31482 fps=1070 q=-0.0 size=N/A time=00:21:53.06 bitrate=N/A speed=44.6x    frame=32036 fps=1071 q=-0.0 size=N/A time=00:22:16.16 bitrate=N/A speed=44.7x    frame=32610 fps=1072 q=-0.0 size=N/A time=00:22:40.10 bitrate=N/A speed=44.7x    frame=33134 fps=1070 q=-0.0 size=N/A time=00:23:01.96 bitrate=N/A speed=44.6x    frame=33616 fps=1068 q=-0.0 size=N/A time=00:23:22.06 bitrate=N/A speed=44.6x    frame=34168 fps=1068 q=-0.0 size=N/A time=00:23:45.09 bitrate=N/A speed=44.5x    [Parsed_ssim_10 @ 0000022da74547c0] SSIM Y:0.989364 (19.732382) U:0.992491 (21.244056) V:0.992881 (21.475671) All:0.990472 (20.209768)
[out#0/null @ 0000022da1649800] video:14832KiB audio:269948KiB subtitle:0KiB other streams:0KiB global headers:0KiB muxing overhead: unknown
frame=34519 fps=1066 q=-0.0 Lsize=N/A time=00:23:59.72 bitrate=N/A speed=44.5x    
